<svg width="50" height="50" viewBox="0 0 50 50" fill="none" xmlns="http://www.w3.org/2000/svg">
<path d="M24.9962 4.16699C18.73 4.16699 14.667 8.37322 9.86188 9.90637C7.90808 10.5298 6.93117 10.8415 6.53582 11.2808C6.14046 11.7202 6.02469 12.3623 5.79315 13.6464C3.31547 27.3878 8.73102 40.0919 21.6464 45.0367C23.0341 45.568 23.728 45.8337 25.0031 45.8337C26.2782 45.8336 26.972 45.568 28.3596 45.0367C41.2742 40.0919 46.6846 27.3878 44.2062 13.6464C43.9745 12.3621 43.8587 11.7199 43.4633 11.2805C43.0678 10.8411 42.091 10.5296 40.1373 9.90655C35.3303 8.37354 31.2627 4.16699 24.9962 4.16699Z" stroke="#BD7142" stroke-width="3" stroke-linecap="round" stroke-linejoin="round"/>
<path d="M20.8333 25.6944C20.8333 25.6944 22.1354 25.6944 23.4375 29.1667C23.4375 29.1667 27.5735 20.4861 31.25 18.75" stroke="#BD7142" stroke-width="3" stroke-linecap="round" stroke-linejoin="round"/>
</svg>
